<svg id="Layer_1" data-name="Layer 1" xmlns="http://www.w3.org/2000/svg" viewBox="0 0 155.35 178.54"><defs><style>.cls-1{fill:#fff;}.cls-1,.cls-4{stroke:#00bce1;}.cls-1,.cls-2,.cls-4,.cls-5{stroke-miterlimit:10;}.cls-1,.cls-4,.cls-5{stroke-width:5px;}.cls-2,.cls-3{fill:#00bce1;}.cls-2,.cls-5{stroke:#fff;}.cls-2{stroke-width:0.25px;}.cls-4,.cls-5{fill:none;}.cls-5{stroke-linecap:round;}</style></defs><polygon class="cls-1" points="77.64 175.4 2.95 132.27 2.95 46.01 77.64 2.89 152.34 46.01 152.34 132.27 77.64 175.4"/><polygon class="cls-2" points="23.19 126.45 30.3 128.07 56.93 34.72 49.82 33.1 23.19 126.45"/><polygon class="cls-2" points="70.2 136.42 77.32 137.96 102.96 44.33 95.83 42.79 70.2 136.42"/><polygon class="cls-3" points="69.96 136.05 77.17 134.87 56.64 34.94 49.43 36.13 69.96 136.05"/><path class="cls-1" d="M469,270" transform="translate(-357.71 -219.83)"/><path class="cls-1" d="M458.49,314.07a22.77,22.77,0,0,1-11.79,44" transform="translate(-357.71 -219.83)"/><path class="cls-4" d="M458.88,314.07a22.77,22.77,0,0,1-11.79,44" transform="translate(-357.71 -219.83)"/><path class="cls-4" d="M470.26,269.83a22.77,22.77,0,0,1-11.78,44" transform="translate(-357.71 -219.83)"/><line class="cls-5" x1="77.87" y1="176.04" x2="77.87" y2="167.12"/><line class="cls-5" x1="77.69" y1="19.7" x2="77.65" y2="2.51"/><line class="cls-5" x1="19.39" y1="57.28" x2="2.5" y2="45.9"/><line class="cls-5" x1="152.85" y1="132.33" x2="142.83" y2="126.12"/><line class="cls-5" x1="152.73" y1="45.85" x2="140.06" y2="54.48"/><line class="cls-5" x1="16.63" y1="122.65" x2="2.52" y2="132.35"/></svg>